<svg viewBox="0 0 893 502" width="56.924303" height="32" preserveAspectRatio="xMidYMid meet" version="1.0" xmlns="http://www.w3.org/2000/svg" xmlns:xlink="http://www.w3.org/1999/xlink">
    <g fill="currentColor" transform="matrix(0.1, 0, 0, -0.1, 0, 502)">
        <path d="M6060 5014c-578-39-994-111-1530-263-74-21-191-53-260-71-904-237-1926-816-2854-1618-407-352-1066-1018-1066-1078 0-11 68-88 158-179 491-500 843-966 937-1238 32-96 36-102 63-105 24-3 33 3 49 31 34 56 194 237 299 336 111 105 337 296 461 390l81 61 99-15c202-30 278-45 613-120 364-82 339-81 434-18 76 52 79 53 115 83 13 11 28 20 32 20s14 6 21 13c7 6 47 35 88 62s81 56 88 62c7 7 17 13 22 13 4 0 66 38 137 85 70 47 135 90 143 95s35 23 60 40c25 16 49 30 53 30s20 8 35 19c15 10 50 32 77 49 28 17 55 36 61 41s26 17 45 26c19 10 36 21 39 25 5 7 37 25 121 70 16 9 37 21 46 28 34 24 98 62 150 87 29 15 55 31 59 36 3 6 29 21 57 35 29 13 81 42 117 63 36 22 92 53 125 71 33 17 101 54 150 81 289 157 906 459 940 459 9 0 56 20 105 45s96 45 105 45c8 0 38 11 67 24s69 29 88 36 64 23 100 36c92 34 329 113 395 131 6 1 26 7 45 12 54 16 192 51 220 56 14 3 57 12 95 20 564 118 1009 65 1279-153 19-15 39-22 60-20l31 3-1 120c-2 173-41 387-110 600-46 144-176 406-261 525-91 127-266 302-373 372-327 214-809 364-1360 423-137 15-631 27-750 19zM6766 4925c550-57 1036-208 1364-423 106-70 253-217 342-342 114-160 222-387 287-601 18-60 71-306 71-330 0-5-33 23-72 63-207 208-470 291-928 291-357 0-695-48-1155-165-1813-458-4260-1787-5101-2772l-50-59-24 64c-90 240-446 703-908 1180l-151 156 106 119c324 363 780 791 1199 1126 855 683 1751 1165 2564 1378 69 18 186 50 260 71 536 152 952 224 1530 263 113 8 521-4 666-19zM8111 3494c266-36 454-118 589-255 56-57 110-139 91-139-5 0-12 4-15 9-16 25-238 111-336 130-30 6-68 13-85 17-59 12-292 19-401 12-94-6-183-18-403-54-87-15-371-91-503-136-31-10-66-21-77-23-10-2-32-10-49-19-16-8-32-13-35-10-2 3-24-4-48-15s-71-29-104-41-91-34-130-50c-38-15-86-34-105-41s-62-26-94-42c-33-16-69-31-81-33-25-4-648-297-685-321-14-10-74-41-134-70s-112-56-115-60c-3-5-41-26-84-48-44-22-107-56-142-75s-92-50-127-69c-35-18-65-37-68-42-3-4-26-17-50-29-53-25-140-74-156-88-6-6-31-20-55-32-24-13-46-26-49-30s-21-16-41-26c-76-40-124-67-129-74-3-4-20-15-39-25-19-9-39-21-45-26-26-22-102-69-111-69-6 0-20-7-30-15-11-9-45-31-75-50-62-39-53-33-182-119-54-36-106-67-117-71-10-3-22-12-25-20s-12-15-20-15-21-6-28-13c-7-6-47-35-88-62s-81-56-88-62c-7-7-17-13-21-13s-19-9-32-20c-38-31-41-34-93-68-31-20-57-30-70-27-12 3-84 18-161 35-77 16-257 53-400 83s-284 58-313 62l-54 7 49 35c111 80 440 297 608 400 1368 841 3025 1514 4145 1682 340 50 574 58 811 25z" />
        <path d="M420 1186c-126-33-233-102-307-201C29 874-5 759 3 615 15 382 154 194 370 118c94-33 286-33 380 0 159 56 286 183 342 342 32 94 32 276 0 370-56 159-185 287-342 341-82 28-249 35-330 15z" />
    </g>
</svg>